# xmcd CD database file
#
# Track frame offsets:
#	150
#	16012
#	36632
#	56217
#	74060
#	92412
#	112552
#	133687
#	156127
#
# Disc length: 2308 seconds
#
# Revision: 1
# Processed by: cddbd v1.5.2PL0 Copyright (c) Steve Scherf et al.
# Submitted via: CDex 1.70beta3
#
DISCID=73090209
DTITLE=NOBODY - RESTLESS HEART
DYEAR=1986
DGENRE=J-Rock
TTITLE0=RESTLESS HEART
TTITLE1=BREAK IT UP
TTITLE2=JOHNNY BE BAD
TTITLE3=DEEP IN LOVE
TTITLE4=DA・DA・DA I LOVE YOU
TTITLE5=DIRTY EYES
TTITLE6=STRANGER
TTITLE7=BLUE IN PARADISE
TTITLE8=BYE・BYE・BYE
EXTD=YEAR: 1986
EXTT0=
EXTT1=
EXTT2=
EXTT3=
EXTT4=
EXTT5=
EXTT6=
EXTT7=
EXTT8=
PLAYORDER=
